<svg xmlns="http://www.w3.org/2000/svg" viewBox="0 0 37.289 17.673"><defs><clipPath id="a"><path d="M2-.862h16v8H2v-8z"/></clipPath><mask id="b"><g clip-path="url(#a)"><path d="M2-.862h16v8H2v-8z" fill-opacity=".441"/></g></mask><clipPath id="c"><path d="M2-.862h16v8H2v-8z"/></clipPath><clipPath id="d"><path d="M2 0h16v8H2V0z"/></clipPath><linearGradient id="e" y2="-31.002" gradientUnits="userSpaceOnUse" x2="-5.853" gradientTransform="matrix(.6 -.00186 .00186 .6 17.891 22.75)" y1="-31.002" x1="-21.853"><stop offset="0" stop-color="#fff"/><stop offset="1"/></linearGradient><linearGradient id="f" y2="10.2" gradientUnits="userSpaceOnUse" x2="46.15" gradientTransform="matrix(.6 0 0 -.6 0 14.13)" y1="10.2" x1="1.101"><stop offset="0" stop-color="#9cadb5"/><stop offset="1" stop-color="#e0e0e0"/></linearGradient><radialGradient id="g" gradientUnits="userSpaceOnUse" cy="-21.613" cx="2.255" gradientTransform="matrix(-.06528 -.5964 .5568 -.07032 24.902 10.985)" r="21.012"><stop offset="0" stop-color="#f2db8a"/><stop offset="1" stop-color="#877531"/></radialGradient><radialGradient id="h" gradientUnits="userSpaceOnUse" cy="-16.343" cx="1.939" gradientTransform="matrix(-.066 -.5964 .55576 -.07104 18.812 11.724)" r="2.955"><stop offset="0" stop-color="#d4c17d"/><stop offset="1" stop-color="#b3a051"/></radialGradient><radialGradient id="i" gradientUnits="userSpaceOnUse" cy="-16.098" cx="7.021" gradientTransform="matrix(-.066 -.59632 .55768 -.07056 18.561 11.781)" r="3.295"><stop offset="0" stop-color="#d4c17d"/><stop offset="1" stop-color="#b3a051"/></radialGradient><radialGradient id="j" gradientUnits="userSpaceOnUse" cy="-36.492" cx="4.656" gradientTransform="matrix(-.06496 -.59648 .55512 -.07088 41.982 8.77)" r="2.54"><stop offset="0" stop-color="#d4c17d"/><stop offset="1" stop-color="#b3a051"/></radialGradient><radialGradient id="k" gradientUnits="userSpaceOnUse" cy="-21.334" cx="4.313" gradientTransform="matrix(-.06528 -.5964 .55656 -.07 24.575 11.039)" r="19.176"><stop offset="0" stop-color="#d4c17d"/><stop offset="1" stop-color="#b3a051"/></radialGradient><radialGradient id="l" gradientUnits="userSpaceOnUse" cy="-22.418" cx="-.499" gradientTransform="matrix(-.06544 -.5964 .55688 -.07 25.831 10.884)" r="19.718"><stop offset="0" stop-color="#c7b577"/><stop offset="1" stop-color="#bdaa57"/></radialGradient><radialGradient id="m" gradientUnits="userSpaceOnUse" cy="-22.026" cx="-.852" gradientTransform="matrix(-.06544 -.5964 .55688 -.07 25.38 10.94)" r="19.718"><stop offset="0" stop-color="#e3d49d"/><stop offset="1" stop-color="#e0ca70"/></radialGradient><radialGradient id="n" gradientUnits="userSpaceOnUse" cy="-22.192" cx="-.732" gradientTransform="matrix(-.06536 -.5964 .55688 -.07024 25.57 10.904)" r="24.445"><stop offset="0" stop-color="#e6d189"/><stop offset="1" stop-color="#bdaa57"/></radialGradient><radialGradient id="o" gradientUnits="userSpaceOnUse" cy="-21.855" cx="-1.042" gradientTransform="matrix(-.06536 -.5964 .55688 -.07024 25.183 10.952)" r="24.445"><stop offset="0" stop-color="#fff6d4"/><stop offset="1" stop-color="#e0ca70"/></radialGradient><radialGradient id="p" gradientUnits="userSpaceOnUse" cy="-24.477" cx="4.47" gradientTransform="matrix(-.06552 -.5964 .5568 -.07008 28.202 10.581)" r="17.982"><stop offset="0" stop-color="#d6c894"/><stop offset="1" stop-color="#a89642"/></radialGradient><radialGradient id="q" gradientUnits="userSpaceOnUse" cy="-24.129" cx="4.061" gradientTransform="matrix(-.06552 -.5964 .5568 -.07008 27.802 10.632)" r="17.982"><stop offset="0" stop-color="#fff6d4"/><stop offset="1" stop-color="#e0ca70"/></radialGradient><radialGradient id="r" gradientUnits="userSpaceOnUse" cy="-26.365" cx="4.234" gradientTransform="matrix(-.06552 -.5964 .5568 -.07008 30.378 10.308)" r="16.486"><stop offset="0" stop-color="#fff6d4"/><stop offset="1" stop-color="#e0ca70"/></radialGradient></defs><path d="M34.913 8.487l.15-.039c-.976 2.675-3.076 4.877-6.298 6.601-3.276 1.748-7.018 2.623-11.216 2.623-4.224 0-7.984-.884-11.284-2.662C3.012 13.262.922 11.035 0 8.335l.297.04c.978.65 3.067 1.185 6.265 1.61 3.253.425 6.95.64 11.1.64 4.077 0 7.714-.2 10.912-.6 3.15-.4 5.263-.913 6.338-1.538z" fill-rule="evenodd" fill="#d7eaf2"/><path d="M33.525 9.048c-.224.601-.585 1.226-1.089 1.875-.947 1.275-2.421 2.564-4.423 3.862-1.573 1.025-3.51 1.852-5.81 2.477-1.075.151-1.675.223-1.803.223 3.023-.927 5.2-2.275 6.524-4.052.576-.771.937-1.499 1.089-2.173.073-.625.127-1.035.15-1.236 2.326-.249 4.112-.575 5.362-.976z" fill-rule="evenodd" fill="#bdd4de"/><g mask="url(#b)" transform="matrix(1.25 0 0 -1.25 0 17.673)"><g clip-path="url(#c)"><g clip-path="url(#d)" transform="translate(0 -.862)"><path d="M17.441 6.562L15.492.922 12.34.953c-.68.098-1.438.27-2.278.508-.882.281-1.613.582-2.191.902C5.992 3.402 4.539 4.562 3.52 5.84c-.5.64-.821 1.172-.958 1.59l1.649-.27c2.699-.437 6.012-.66 9.93-.66l3.3.062z" fill-rule="evenodd" fill="url(#e)"/></g></g></g><path d="M2.851 11.86c1.583 1.875 3.584 3.307 5.997 4.293-2.06-.762-3.833-1.754-5.323-2.979C1.801 11.748.625 10.137 0 8.335l.303.04c.17.122.36.224.56.297.426 1.05 1.09 2.115 1.988 3.188z" fill-rule="evenodd" fill="#bdd4de"/><path d="M23.73 11.611c2.641-1 3.961-2.203 3.961-3.602 0-1.398-1.32-2.59-3.961-3.57-2.64-1-5.82-1.5-9.539-1.5-3.738 0-6.929.5-9.57 1.5C1.98 5.419.66 6.611.66 8.009c0 1.399 1.32 2.602 3.961 3.602 2.641.98 5.832 1.468 9.57 1.468 3.719 0 6.899-.488 9.539-1.468z" fill-rule="evenodd" fill="url(#f)" transform="matrix(1.25 0 0 -1.25 0 17.673)"/><path d="M35.025 7.212H33.94c-.229-1.553-1.914-2.867-5.063-3.94-3.125-1.074-6.875-1.612-11.25-1.612-4.35 0-8.09.538-11.216 1.612-3.15 1.073-4.834 2.387-5.064 3.94H.077C.474 5.508 2.34 4.087 5.664 2.935c3.373-1.147 7.338-1.723 11.885-1.723 4.575 0 8.54.576 11.89 1.723 3.348 1.152 5.215 2.573 5.586 4.277z" fill-rule="evenodd" fill="#fff"/><path d="M26.973 6.302c-.903-.523-2.203-1.094-3.903-1.711-2.461-.902-4.57-1.359-6.328-1.383-1.922-.019-4.019.071-6.301.27-2.082.203-3.671.434-4.769.691-.902.219-1.781.559-2.641 1.02-.761.402-1.152.68-1.172.84-.019.082.102.23.364.449.297.262.457.422.476.48.321.903 1.59 1.672 3.813 2.313.578.16 1.168.641 1.769 1.437.559.762 1.031 1.153 1.41 1.172 1.879.141 3.418.121 4.621-.058.418-.063 1.071-.27 1.95-.629.718-.301 1.328-.442 1.828-.422.461.019 1.5.101 3.121.238 1.461.082 2.359-.039 2.699-.359.5-.481 1.031-1.09 1.59-1.828.66-.84.98-1.41.961-1.711-.02-.219.172-.371.57-.449.258-.063.239-.184-.058-.36z" fill-rule="evenodd" fill="url(#g)" transform="matrix(1.25 0 0 -1.25 0 17.673)"/><path d="M9.691 11.88c.579.098.668-.039.27-.422-.5-.496-.68-.808-.539-.929.16-.16.5-.137 1.019.062.481.199.739.25.782.149.078-.219-.071-.411-.453-.571-.418-.179-.981-.211-1.68-.09-.699.141-.899.461-.602.961.301.461.703.739 1.203.84z" fill-rule="evenodd" fill="url(#h)" transform="matrix(1.25 0 0 -1.25 0 17.673)"/><path d="M10.352 8.939c.3.039.449-.09.449-.391 0-.156-.039-.429-.121-.808a1.317 1.317 0 0 0-.328-.719c-.2-.223-.422-.32-.661-.301-.218.039-.589.039-1.109 0l-.719-.058c.059.117.168.238.328.359.301.258.68.398 1.141.418.398.039.59.289.57.75 0 .48.149.73.45.75z" fill-rule="evenodd" fill="url(#i)" transform="matrix(1.25 0 0 -1.25 0 17.673)"/><path d="M22.289 8.669c.723-.179.883-.507.481-.988-.399-.461-1.008-.582-1.829-.359-.781.199-.91.507-.39.929.5.438 1.078.578 1.738.418z" fill-rule="evenodd" fill="url(#j)" transform="matrix(1.25 0 0 -1.25 0 17.673)"/><path d="M25.23 7.232c-.378.199-.878.488-1.5.867-.699.441-1.16.719-1.378.84-.661.402-1.622.551-2.883.453a26.68 26.68 0 0 0-1.559-.211c-.719-.082-1.258-.039-1.621.121-.156.059-.359.238-.598.539-.16.18-.55.258-1.171.238-.54-.019-1.27-.16-2.188-.417-.922-.262-1.582-.403-1.98-.422-.782-.059-1.313-.129-1.59-.207-.481-.121-.84-.364-1.082-.723-.379-.539-.668-.91-.871-1.109-.34-.34-.719-.539-1.137-.598a6.433 6.433 0 0 1-1.41-.391c-.5-.179-.762-.34-.782-.48a.643.643 0 0 1 0-.465c-.48.187-.789.34-.929.465-.5.418-.422.758.238 1.019.52.219 1.191.328 2.012.328.558 0 1.008.122 1.351.36.157.121.399.383.719.781.16.199.391.512.688.93.339.32.871.469 1.589.453a4.495 4.495 0 0 1 1.922.297c.321.14.739.32 1.258.543.461.117.813.179 1.051.179.34 0 .859-.082 1.559-.242.281-.058.64-.258 1.082-.597.242-.204.878-.262 1.918-.18.902.059 1.871.148 2.91.269.683-.019 1.293-.261 1.832-.722.379-.317 1.109-.738 2.191-1.258.797-.379 1.18-.672 1.137-.871a5.68 5.68 0 0 0-.238-1.231c-.161-.5-.309-.648-.45-.449-.062.102.008.41.207.93.184.437.082.758-.297.961zm-6.871 0c-.738.297-1.25.488-1.527.57-.48.16-.863.16-1.141 0-.121-.062-.55-.223-1.289-.484-.562-.199-.929-.399-1.109-.598-.383-.461-.684-.82-.902-1.082-.438-.519-.789-.82-1.051-.898-.399-.121-.887-.192-1.469-.211-.66-.02-1.082.07-1.262.269-.238.262-.41.422-.507.481-.2.101-.52.172-.961.211a2.875 2.875 0 0 1-1.442-.27c-.441-.211-.605-.394-.492-.555-.375.118-.711.227-1.008.329.047.031.098.066.153.105.48.34 1.078.641 1.8.902.778.301 1.348.399 1.711.301.18-.043.457-.32.84-.844.297-.398.688-.55 1.168-.449.66.16 1.109.309 1.352.449.257.161.5.461.718.903.602 1.097 1.352 1.648 2.25 1.648.262 0 .579.141.961.422.301.219.7.25 1.2.09.882-.281 1.812-.52 2.789-.719.382-.101.91-.113 1.589-.031.543.058.973-.02 1.293-.242.399-.297.618-.52.657-.66 0-.04-.047-.29-.149-.75-.058-.258.051-.668.328-1.227.203-.422.192-.645-.027-.66a1.244 1.244 0 0 1-.57-.184c-.043-.019-.082.02-.121.121-.039.18-.071.493-.09.93-.039.52-.028.918.031 1.199.16.68-.219 1.02-1.141 1.02-.121 0-.519-.071-1.199-.211-.441-.078-.902-.035-1.383.125zM12.602 3.81c-.661-.059-1.063-.109-1.2-.152a10.162 10.162 0 0 0-.48-.149c-.121-.039-.402-.058-.844-.058-.234 0-.605.054-1.109.164.265.054.758.191 1.472.402.719.242 1.27.363 1.649.363h1.172c.34.059.636.25.898.571.32.378.84.668 1.563.867.777.199 1.347.16 1.707-.117.34-.262.781-.481 1.32-.661a4.864 4.864 0 0 1 1.02-.211c.218-.019.492-.07.808-.152.344-.078.551-.16.633-.238.117-.078.129-.25.027-.512-.117-.238-.297-.328-.539-.269-.199.058-.558.218-1.078.48-.641.34-1.09.559-1.351.66-.602.262-1.02.418-1.262.481-.481.121-.899.101-1.258-.059-.281-.121-.609-.32-.988-.601-.383-.258-.672-.442-.871-.54-.262-.101-.692-.187-1.289-.269zM3.48 5.267c.208-.086.446-.176.719-.273-.301-.172-.508-.149-.629.078a.816.816 0 0 0-.09.195zm1.727-.602c.289-.089.605-.183.945-.285 1.188-.355 2.129-.613 2.821-.765-.035-.004-.067-.012-.094-.016-.418-.059-1.117.063-2.098.359-.902.301-1.422.532-1.558.692l-.016.015z" fill-rule="evenodd" fill="url(#k)" transform="matrix(1.25 0 0 -1.25 0 17.673)"/><path d="M25.352 9.302c-.321.438-.77.707-1.352.809a26.19 26.19 0 0 1-3.66.48c-.539.039-1.16.301-1.86.781-.761.5-1.32.778-1.679.84-.742.239-1.289.391-1.653.45-.64.14-1.308-.012-2.007-.45a97.527 97.527 0 0 0-2.071-1.41c-.64-.422-1.191-.652-1.652-.691-.141-.02-.797.039-1.98.179-.821.082-1.411-.007-1.77-.269a92.172 92.172 0 0 0-1.559-1.32c-.539-.481-.761-.551-.66-.207.5 1.597 1.36 2.398 2.578 2.398h1.141c1.781-.199 2.973-.043 3.57.48a13.037 13.037 0 0 0 2.223 1.5c1.137.622 2.059.852 2.758.688.48-.117 1.179-.52 2.101-1.199.879-.641 1.688-1.008 2.43-1.11 1.66-.218 2.539-.339 2.641-.359.816-.141 1.457-.332 1.918-.57.558-.321 1.011-.68 1.351-1.082.379-.418.551-.797.508-1.137-.039-.363-.391-.742-1.047-1.141a5.21 5.21 0 0 0-2.254-.754c-.597-.058-1.25-.347-1.949-.867-.66-.5-1.129-.75-1.41-.75h-.988c-.122.02-.184.071-.184.149 0 .14.301.332.902.57.481.18 1.551.57 3.211 1.172 1.481.558 2.328 1.039 2.551 1.437.262.461.211.922-.148 1.383z" fill-rule="evenodd" fill="url(#l)" transform="matrix(1.25 0 0 -1.25 0 17.673)"/><path d="M25.141 9.54a2.13 2.13 0 0 1-1.352.809 24.959 24.959 0 0 1-3.66.48c-.539.04-1.16.301-1.859.782-.758.5-1.329.781-1.708.84-.742.242-1.292.39-1.652.449-.621.14-1.281-.008-1.98-.449-1-.68-1.692-1.149-2.071-1.411-.64-.421-1.199-.648-1.679-.691-.141-.02-.789.043-1.95.184-.839.078-1.429-.012-1.769-.274a85.158 85.158 0 0 0-1.563-1.316c-.539-.485-.757-.551-.656-.211.5 1.597 1.36 2.398 2.578 2.398h1.141c1.781-.199 2.969-.051 3.57.449.641.583 1.379 1.09 2.219 1.532 1.141.621 2.059.851 2.762.691.457-.121 1.156-.523 2.097-1.203.883-.637 1.692-1.008 2.43-1.109 1.699-.219 2.582-.34 2.641-.36.8-.14 1.429-.328 1.89-.57.559-.32 1.02-.68 1.379-1.082.383-.418.551-.797.512-1.137-.039-.363-.391-.742-1.051-1.14a5.296 5.296 0 0 0-2.25-.75c-.621-.059-1.269-.352-1.949-.872-.66-.5-1.141-.75-1.441-.75h-.961l.66.54a7.67 7.67 0 0 0 1.742.992c.48.179 1.269.429 2.367.75.922.297 1.492.648 1.711 1.051.262.457.211.917-.148 1.378z" fill-rule="evenodd" fill="url(#m)" transform="matrix(1.25 0 0 -1.25 0 17.673)"/><path d="M25.199 9.029c-.66 0-1.328.273-2.008.812-.359.321-.851.84-1.468 1.559-.364.441-.985.629-1.864.57-.781-.039-1.457-.23-2.039-.57-.758-.438-1.328-.84-1.711-1.199-.519-.52-.371-.75.453-.692.18 0 .868.16 2.067.481.582.16 1.141 0 1.683-.481.438-.418.93-.918 1.469-1.5.442-.359.989-.5 1.649-.418.82.102 1.511-.101 2.07-.601.582-.52.453-.957-.387-1.321-.742-.316-1.203-.437-1.383-.359l-.031.18.754.449c.379.34.328.601-.152.781-.321.141-.84.231-1.559.27-.562.019-.992.16-1.289.422-.5.539-.883.937-1.141 1.199-.46.48-.91.738-1.351.781-.359.039-.852-.012-1.469-.152-.742-.141-1.371-.211-1.89-.211-.301 0-.891-.09-1.77-.27-.422-.101-.723.02-.902.36-.059.121-.301.691-.719 1.71-.32.782-.59 1.262-.809 1.442a2.698 2.698 0 0 1-1.441.687c-.719.102-1.16-.257-1.32-1.078-.141-.801.109-1.511.75-2.133.359-.359.921-.828 1.679-1.41 1.039-1.097 1.391-1.828 1.051-2.187-.398-.403-.648-.633-.75-.692-.461-.218-1.07-.211-1.828.032-.742.238-1.563.617-2.461 1.14-.879.539-1.449.887-1.711 1.051-.398.238-.969.328-1.711.27-.719-.082-1.129-.262-1.23-.543-.078-.278.082-.539.48-.778.363-.222.852-.39 1.473-.511.398-.079.847-.161 1.347-.239a6.135 6.135 0 0 0 1.411-.39c.16-.059.73-.52 1.711-1.383.66-.578 1.312-.719 1.953-.418.359.16.968.742 1.828 1.742.699.816 1.512 1.289 2.429 1.41a47.53 47.53 0 0 1 2.25.27c.422-.02 1.059-.242 1.922-.66.7-.34 1.328-.559 1.891-.661.316-.058.516-.16.598-.3.179-.321.808-.7 1.89-1.141l-1.351-.391c.019.102-.032.223-.149.36-.222.281-.64.543-1.261.781-.098.043-.711.313-1.829.813-.601.257-1.152.41-1.652.449a6.404 6.404 0 0 1-1.891-.18c-.64-.141-1.168-.34-1.589-.602-.297-.179-.68-.539-1.137-1.078-.481-.562-.754-.859-.813-.902-.718-.598-1.55-.758-2.488-.48-.422.121-.902.402-1.441.839-.52.442-1.051.731-1.59.871-1.063.262-1.84.461-2.344.602-.898.238-1.539.481-1.918.719C1.242 6.732.801 7.29.84 7.829c.082.68.699 1.122 1.859 1.321s2.113.058 2.852-.418c.48-.32 1.121-.82 1.922-1.5.82-.563 1.777-.922 2.879-1.082 1.16-.16 1.398.191.718 1.051-.218.281-1.031 1.078-2.429 2.398-.782.742-1.2 1.391-1.262 1.953-.059.617.281 1.238 1.023 1.86.719.578 1.508.699 2.368.359.781-.32 1.41-.922 1.89-1.801.039-.058.219-.75.539-2.07.102-.418.543-.36 1.321.179 1.679 1.141 2.812 1.86 3.39 2.161 1.399.718 2.469.922 3.211.601.617-.281 1.012-.609 1.168-.992.242-.52.531-.918.871-1.199 1-.86 2.129-1.117 3.391-.781.379.121.879-.059 1.5-.54.617-.48.969-.71 1.051-.687.359.117.589.137.687.059.043-.039.051-.09.031-.153 0-.519-.148-.777-.449-.777-.121 0-.351.18-.691.539-.34.398-.641.641-.899.719-.281.062-.613.082-.992.062a30.364 30.364 0 0 0-1.59-.062z" fill-rule="evenodd" fill="url(#n)" transform="matrix(1.25 0 0 -1.25 0 17.673)"/><path d="M25.02 9.208c-.661 0-1.329.282-2.008.84-.344.281-.832.793-1.473 1.531-.359.442-.98.629-1.859.571-.801-.039-1.481-.231-2.039-.571-.782-.441-1.352-.839-1.711-1.199-.5-.5-.352-.73.449-.691.183 0 .883.16 2.101.48.582.16 1.129 0 1.649-.48.441-.418.933-.918 1.473-1.5.46-.36 1.007-.5 1.648-.418.82.121 1.512-.082 2.07-.602.582-.5.453-.929-.39-1.289-.739-.32-1.2-.449-1.379-.39l-.031.179.75.45c.382.343.332.613-.149.812-.34.141-.851.231-1.531.27-.578.019-1.008.152-1.289.39-.5.539-.879.949-1.141 1.227-.48.484-.93.742-1.351.781-.36.02-.86-.027-1.5-.148-.719-.161-1.348-.243-1.887-.243-.301 0-.891-.089-1.77-.269-.422-.078-.722.039-.902.359a91.53 91.53 0 0 0-.719 1.711c-.32.762-.59 1.238-.808 1.442-.422.398-.903.628-1.442.687-.719.121-1.16-.238-1.32-1.078-.141-.781.109-1.481.75-2.102.359-.359.922-.828 1.68-1.41 1.019-1.14 1.371-1.871 1.05-2.187-.359-.403-.609-.641-.75-.723-.461-.219-1.07-.207-1.828.031-.742.262-1.562.641-2.461 1.141-.879.559-1.449.918-1.711 1.082-.398.219-.968.297-1.711.238-.718-.082-1.128-.261-1.23-.539-.078-.281.082-.543.48-.781.36-.219.852-.391 1.473-.512.399-.078.848-.16 1.348-.238a5.95 5.95 0 0 0 1.41-.391c.18-.058.75-.511 1.711-1.351.66-.598 1.308-.75 1.953-.449.355.179.969.761 1.828 1.738.699.82 1.512 1.293 2.43 1.41 1.48.184 2.23.273 2.25.273.402 0 1.039-.222 1.922-.66.699-.34 1.328-.562 1.886-.66.321-.062.52-.16.602-.301.18-.3.809-.679 1.891-1.14l-1.352-.36c.02.102-.031.219-.152.36-.219.281-.637.539-1.258.781-.879.379-1.488.641-1.832.781-.598.258-1.149.41-1.649.449a7.038 7.038 0 0 1-1.89-.148c-.641-.16-1.168-.363-1.59-.602-.301-.179-.68-.539-1.141-1.082-.48-.578-.75-.89-.808-.929-.719-.598-1.551-.758-2.489-.481-.402.121-.882.41-1.441.871-.52.442-1.051.719-1.59.84a82.5 82.5 0 0 0-2.34.602c-.902.258-1.539.508-1.922.75C1.039 6.939.602 7.49.66 8.009c.082.68.699 1.121 1.86 1.32 1.16.219 2.109.09 2.851-.39.481-.32 1.121-.828 1.918-1.531.82-.559 1.781-.911 2.883-1.047 1.16-.16 1.398.179.719 1.019-.219.282-1.032 1.078-2.43 2.399-.781.738-1.199 1.398-1.262 1.98-.058.621.281 1.231 1.024 1.832.718.578 1.507.699 2.367.36.781-.321 1.41-.911 1.89-1.774.04-.058.219-.75.54-2.07.101-.418.539-.367 1.32.152 1.722 1.16 2.851 1.879 3.39 2.16 1.403.739 2.469.942 3.211.598.621-.277 1.012-.609 1.168-.988.243-.52.532-.918.871-1.2 1.02-.882 2.153-1.128 3.391-.75.461.122.899.09 1.32-.089.399-.18.668-.442.809-.782.18-.441.562-.601 1.141-.48 0-.5-.149-.75-.45-.75-.121 0-.351.18-.691.539-.34.402-.641.633-.898.691-.282.059-.61.082-.993.059a41.609 41.609 0 0 0-1.589-.059z" fill-rule="evenodd" fill="url(#o)" transform="matrix(1.25 0 0 -1.25 0 17.673)"/><path d="M25.5 8.31c.539-.242.91-.5 1.109-.781.262-.34.313-.77.153-1.289a2.535 2.535 0 0 0-.301-.661l-.961-.511.633 1.203c.277.5.027 1.019-.754 1.558-.18.122-.887.5-2.129 1.141-.559.481-.988.77-1.289.871-.481.117-1.399-.183-2.758-.902-1.281-.699-2.59-1.051-3.93-1.051h-2.16c-.301-.141-.82-.078-1.562.18-.86.301-1.559.441-2.098.422a2.53 2.53 0 0 1-1.773-.75c-.078-.102-.356-.5-.84-1.2-.137-.222-.387-.523-.75-.902-.258-.34-.297-.719-.117-1.141.179-.418.699-.781 1.558-1.078.422-.14.821-.242 1.199-.3-.277-.059-1.019.058-2.218.359-1.578.422-2.039 1.121-1.379 2.101.16.239.367.458.629.661.218.16.461.476.718.957.442.781 1.122 1.363 2.043 1.742 1.118.48 2.258.437 3.418-.121.36-.16.719-.258 1.082-.301.2-.02.629-.027 1.289-.027 1.54 0 2.622.148 3.239.449.261.101.871.371 1.828.808.922.383 1.613.571 2.074.571.516 0 .957-.098 1.317-.301.222-.098.64-.398 1.261-.898.321-.258.809-.528 1.469-.809z" fill-rule="evenodd" fill="url(#p)" transform="matrix(1.25 0 0 -1.25 0 17.673)"/><path d="M25.352 8.611c.519-.242.886-.5 1.109-.782.238-.339.281-.769.117-1.289a2.542 2.542 0 0 0-.297-.66l-.961-.539.629 1.199c.281.52.031 1.051-.75 1.59-.199.141-.91.52-2.129 1.141-.558.48-.992.758-1.289.84-.48.117-1.402-.18-2.761-.903-1.282-.679-2.59-1.019-3.93-1.019-1.399 0-2.121-.008-2.16-.027-.301-.141-.821-.083-1.559.179-.879.301-1.578.449-2.101.449-.7-.019-1.278-.281-1.739-.781-.261-.258-.551-.648-.871-1.168-.14-.222-.39-.519-.75-.902-.238-.36-.269-.75-.09-1.168.18-.422.692-.77 1.532-1.051.418-.16.82-.269 1.199-.328-.281-.063-1.02.07-2.219.387C4.77 4.201 4.309 4.9 4.949 5.88c.16.219.371.43.629.629.223.18.461.512.723.992.437.778 1.121 1.36 2.039 1.739 1.121.461 2.262.418 3.422-.121.359-.18.718-.278 1.078-.301.14-.016.57-.028 1.289-.028 1.519 0 2.601.141 3.242.418.258.102.867.371 1.828.813.922.379 1.621.57 2.102.57.519 0 .949-.09 1.289-.273.238-.117.672-.426 1.289-.926.32-.262.812-.523 1.473-.781z" fill-rule="evenodd" fill="url(#q)" transform="matrix(1.25 0 0 -1.25 0 17.673)"/><path d="M25.949 6.54c-.418.641-1 1.399-1.738 2.278-.379.422-.672.683-.871.781-.301.16-.649.133-1.051-.09a5.96 5.96 0 0 1-1.351-1.051c-.458-.496-.661-.957-.598-1.379.238-1.48.359-2.41.359-2.789 0-.961-1.558-1.382-4.679-1.261-.282 0-.332.511-.153 1.531.199 1.141-.07 1.902-.808 2.281-.762.379-1.442.371-2.039-.031-.883-.578-1.461-.891-1.743-.93a6.024 6.024 0 0 1-2.07-.808c-.578-.34-.98-.692-1.199-1.051-.262-.442-.59-.609-.988-.512a3.2 3.2 0 0 0 .418.75c.398.559.878.981 1.441 1.262.238.098.949.379 2.129.84.82.34 1.379.629 1.68.871.359.316.851.5 1.468.539.621.019 1.153-.109 1.59-.391.844-.558 1.262-1.441 1.262-2.64 0-.661.012-1.008.031-1.051.059-.18.359-.289.899-.328.679-.043 1.261.09 1.738.39.543.34.722.789.543 1.348a21.07 21.07 0 0 0-.602 1.563 1.744 1.744 0 0 0 .27 1.5A5.146 5.146 0 0 0 21.93 9.99c1.097.558 1.949.402 2.547-.481.621-.879 1.043-1.441 1.261-1.68.059-.058.219-.191.481-.39.261-.18.39-.649.39-1.41l-.421-.375c.093.215.015.508-.239.886z" fill-rule="evenodd" fill="url(#r)" transform="matrix(1.25 0 0 -1.25 0 17.673)"/><path d="M11.587.572c.23 0 .23.077 0 .225-.522.302-.835.487-.937.566-.499.351-.748 1.122-.748 2.324 0 .248-.078.24-.23-.039-.12-.274-.17-.65-.146-1.124.025-.526.274-.986.753-1.386.423-.376.858-.566 1.308-.566zM3.301 6.274c.551 0 1.025.089 1.425.264.402.171.45.259.152.259-.103 0-.513.102-1.24.303-.698.175-1.212.25-1.538.224-.45-.024-.474-.2-.074-.527.4-.347.825-.523 1.275-.523zM15.6 3.087c.225.648.264.971.113.971-.175 0-.313-.21-.415-.635-.073-.376-.073-.615 0-.713.078-.073.176.05.302.377zM19.014.723c.322.025.576.151.751.376.147.225.05.274-.302.146-.224-.073-.577-.082-1.05-.033-.473.048-.762.048-.864 0-.2-.049-.088-.152.337-.304.429-.146.8-.209 1.128-.185zM25.65 1.475c.326.098.478.224.449.37-.025.153-.2.167-.523.04-.225-.097-.64-.048-1.235.152-.552.171-.889.225-1.016.146-.2-.123.049-.298.752-.523.674-.225 1.202-.287 1.573-.185zM18.115 5.225c.45-.127.61-.04.484.26-.123.302-.41.448-.86.448-.424 0-.526-.098-.298-.298.172-.2.397-.337.674-.41zM33.599 5.337c.625.025.766.122.415.298a2.2 2.2 0 0 1-1.017.19c-.272-.023-.312-.112-.11-.263.174-.175.414-.254.712-.225zM12.564 6.045c.497.103.61.175.336.23-.273.05-.6.034-.976-.04-.249-.048-.674.015-1.274.187-.425.102-.586.116-.489.038.205-.176.567-.297 1.089-.376.527-.097.963-.112 1.314-.039zM6.225 4.21c.353-.073.576-.088.675-.04.103.054 0 .127-.299.23-.2.073-.463.298-.786.674-.278.298-.464.4-.566.298-.121-.123-.034-.338.264-.635.273-.303.512-.479.712-.528zM19.277 8.525c.2.098.425.274.674.523.225.274.362.522.41.747.079.377-.161.2-.707-.522-.151-.225-.455-.4-.904-.522-.474-.152-.737-.254-.786-.303-.126-.123-.039-.186.264-.186.322.025.673.112 1.05.263zM22.09 8.824c.449.024.6.111.449.263-.152.122-.362.137-.639.035-.225-.098-.299-.172-.225-.225.049-.073.19-.098.415-.073zM16.762 9.762c.4-.25.338-.05-.185.6-.527.625-.855.888-.977.786-.126-.098-.014-.323.338-.674a4.11 4.11 0 0 1 .825-.712zM27.036 5.595c.328-.146.313-.057-.033.264-.528.479-.89.801-1.09.978a2.32 2.32 0 0 0-.562.937c-.151.474-.238.728-.263.751-.152.3-.186.064-.113-.712.025-.351.322-.786.899-1.314.478-.474.865-.776 1.162-.904zM30.825 8.75c.025.098-.112.088-.41-.038-.4-.177-.712-.274-.943-.299-1.22-.078-1.972-.214-2.246-.415-.102-.073-.053-.098.147-.073.376.073.688.098.942.073a4.38 4.38 0 0 1 1.646.264c.551.171.84.337.864.488zM29.887 10.7c-.273 0-.346-.09-.225-.265.128-.2.328-.298.602-.298.873.025 1.122.122.751.298a2.496 2.496 0 0 1-1.128.264z" fill-rule="evenodd" fill="#fff"/><path d="M8.589 6.235c.522.025.561.138.112.338-.425.224-.727.239-.898.039-.303-.303-.04-.425.786-.377zM5.064 7.92c.4 0 .737.078 1.01.23.254.147.337.273.264.375-.05.098-.323.172-.825.225-.498.05-.874.034-1.123-.038-.274-.049-.327-.2-.151-.45.151-.224.424-.342.825-.342zM11.587 7.324c.478-.024.664.074.567.299-.128.175-.367.302-.714.375-.375.151-.649.25-.825.299a1.19 1.19 0 0 1-.786.038c-.278-.097-.167-.288.337-.56.498-.275.971-.426 1.421-.45z" fill-rule="evenodd" fill="#efdfa1"/><path d="M14.063 7.96c.376.448.424.64.15.565a1.205 1.205 0 0 1-.712-.487c-.151-.201-.166-.338-.039-.415.152-.074.352.039.6.336zM11.553 9.575c.796.2 1.226.347 1.275.45.048.05-.138.088-.567.112-.347.048-.747-.024-1.196-.224-.45-.176-.737-.366-.865-.568-.072-.175.015-.208.264-.11.674.223 1.035.34 1.089.34zM15.415 7.887c.274 0 .361.121.259.375-.123.225-.313.283-.561.186s-.323-.225-.225-.376c.102-.123.273-.185.527-.185zM17.886 3.238c.679.097.992.224.942.371-.03.151-.2.229-.527.229-.273 0-.601-.039-.977-.113-.424-.077-.674-.165-.747-.263-.127-.127-.048-.214.224-.263.299-.05.66-.04 1.085.039z" fill-rule="evenodd" fill="#fff"/><path d="M21.489 4.473c1.397 0 1.797.074 1.201.225-.776.2-1.289.287-1.538.264-.278-.025-.36-.113-.263-.264.126-.151.322-.225.6-.225z" fill-rule="evenodd" fill="#efdfa1"/><path d="M22.236 6.084c.503-.2.625-.185.377.039a5.255 5.255 0 0 1-.977.601c-.322.146-.835.249-1.538.298-.62.053-1.084.053-1.387 0-.225-.024-.088-.113.415-.264a5.768 5.768 0 0 1 1.348-.185c.351 0 .663-.049.937-.151.151-.049.425-.162.825-.338z" fill-rule="evenodd" fill="#fff"/><path d="M22.651 11.9c.123 0 .249.098.376.298.098.2.034.336-.19.415a1.43 1.43 0 0 1-.786-.079c-.274-.121-.45-.297-.522-.522-.079-.152-.03-.224.146-.224.551.072.874.111.976.111zM19.35 11.67c.425-.248.386.078-.111.977-.103.176-.323.278-.674.302-.327.025-.576-.049-.752-.224-.123-.127 0-.288.376-.488.249-.103.639-.288 1.161-.567z" fill-rule="evenodd" fill="#efdfa1"/><path d="M9.077 11.074c.425.25.41.353-.04.299-.448-.049-.75-.176-.897-.376-.151-.172-.128-.259.073-.259.2.024.488.136.865.336zM11.099 10.772c.351-.073.341.063-.034.415-.352.322-.665.547-.938.673-.225.074-.19-.072.112-.448.298-.377.586-.587.86-.64zM27.788 4.663c1.098.322 1.753.811 1.948 1.46-.195-.224-.688-.498-1.46-.825-.825-.323-1.25-.498-1.273-.523-.128-.077-.09-.126.11-.15a1.25 1.25 0 0 1 .675.038z" fill-rule="evenodd" fill="#fff"/><path d="M23.965 6.797c.698.176.835.337.41.488-.4.177-.825.225-1.275.147-.351-.073-.375-.21-.073-.41.323-.225.635-.298.938-.225z" fill-rule="evenodd" fill="#efdfa1"/><path d="M15.225 5.708c.326-.049.464.064.415.337-.025.28-.166.39-.415.342-.225-.024-.337-.142-.337-.342 0-.17.112-.283.337-.337zM13.652 2.823c.226-.074.26-.015.113.19a2.291 2.291 0 0 1-.64.484c-.674.4-1.201.566-1.578.487-.2-.024-.17-.097.08-.224a2.34 2.34 0 0 1 .712-.186c.146 0 .337-.102.561-.302.25-.225.504-.372.752-.449zM33.94 7.212h1.085c.053.122.073.312.073.562 0 1.821-1.71 3.374-5.137 4.648-3.424 1.275-7.559 1.915-12.412 1.915-4.849 0-8.989-.64-12.413-1.915C1.714 11.148 0 9.595 0 7.774l.077-.562h1.27v.298c0 1.627 1.593 2.998 4.767 4.127 3.173 1.146 7.011 1.722 11.513 1.722 4.522 0 8.374-.576 11.548-1.722 3.179-1.129 4.765-2.5 4.765-4.127v-.298z" fill-rule="evenodd" fill="#fff"/><path d="M9.311 2.623a1.166 1.166 0 0 0-.595.472l1.191-.146a5.08 5.08 0 0 0-.596-.326zM10.7 4.122c.024.018.556.248 1.586.688.845.362 1.226.63 1.147.8-.107.192-.673.333-1.703.43-.953.034-1.611.093-1.983.172-.63.131-1.108.522-1.426 1.171-.054.112-.064.454-.039 1.025.025.44-.117.762-.435.973-.741.478-1.107.287-1.107-.572 0-.171.21-.601.634-1.285.21-.321-.068-.692-.835-1.112-.898-.308-1.533-.562-1.9-.772-.688-.4-.448-.78.713-1.142.264-.079.924.029 1.978.312.899.25 1.48.2 1.744-.142a16.058 16.058 0 0 1-.513-1.573c-.147-.62.103-.776.751-.472.074-.03.152-.054.24-.074a1.893 1.893 0 0 1 1.108.118c-.264.707-.249 1.191.04 1.455zM21.988 2.237l-.91-.4c.543.263.343.815-.594 1.66-.924.82-.822 1.391.317 1.713-.396.592-1.177.733-2.338.43-1.744-.478-2.682-.718-2.813-.718-.21-.644.062-1.064.83-1.254.424-.113 1.122-.22 2.099-.313-.318-.86.053-1.49 1.108-1.885 1.09-.425 1.85-.166 2.3.767zM24.17 4.068c-.136-.63.234-.963 1.109-1.001a4.261 4.261 0 0 1 1.898.386c.513-.148.977-.294 1.388-.445.262-.039.62.166 1.069.601.493.859.717 1.23.673 1.103.06.142.23.263.518.357.156.054.156.234 0 .541-.318.645-.781.802-1.391.46-.635-.557-1.07-.898-1.304-1.03-.533-.308-1.148-.552-1.865-.743-.763-.195-1.465-.268-2.095-.229zM18.027 8.38c-1.137-.075-1.81-.172-2.02-.285-.528-.32-.357-.638.517-.94a6.115 6.115 0 0 1 2.098-.348c.318 0 .924.117 1.822.347.581.131 1.093.063 1.543-.201.48-.571.82-.941 1.03-1.113.29-.245.86-.19 1.704.157l-.751-.328c1.107.244 1.519.582 1.225.997-.498.76-.722 1.24-.669 1.43.049.19.513.483 1.387.888.708.323.893.724.552 1.196-.264.42-.766.484-1.504.202-.845-.42-1.441-.66-1.782-.714-1.03 0-1.773-.019-2.221-.059-.792-.077-.987-.439-.592-1.084-.131-.018-.913-.067-2.338-.146zM30.586 7.48c.122.21.152.455.078.728a8.68 8.68 0 0 1-2.099-.141c-.978-.21-1.403-.533-1.27-.972.131-.44.649-.522 1.547-.258.45.146 1.03.361 1.744.643zm-.873-.527c.37.079.648.23.834.455l.02.029-.855-.484zM26.128 11.753c.053.079.112.176.18.284-.502.42-1.44.707-2.812.858-1.27.133-2.285.113-3.052-.058.186-.098.66-.459 1.426-1.084.556-.459 1.055-.728 1.504-.8a2.754 2.754 0 0 1 1.821.282c.235.133.542.303.932.518zM10.542 10.04c.762.15 1.397.102 1.9-.147.053-.02.448-.435 1.185-1.255.425-.479.983-.533 1.665-.171.48.283.48.611 0 .972-.287.19-.776.503-1.465.943.372.63.635.991.792 1.083.215.118.757.18 1.626.2 1.347.04 2.075.07 2.177.088.768.132 1.1.532.992 1.196-3.247.04-5.693.04-7.329 0a11.003 11.003 0 0 1-3.051-.541c-1.416-.455-2.305-.742-2.671-.855.625.166 1.103.025 1.445-.43.527-.688.898-1.064 1.108-1.143.288-.112.83-.097 1.627.06z" fill-rule="evenodd" fill="#b54624"/><path d="M14.067 10.24h-.2c.264-.572.782-.81 1.548-.713.21.663-.044 1.147-.756 1.455.082.033.2.151.356.342.185.17.331.288.439.341-.425.308-.967.2-1.627-.312-.658-.518-.58-.889.24-1.114zM10.103 11.094l-.195.146c.156.015.487.152.99.397-.424.418-.78.507-1.07.258-.292-.25-.2-.513.275-.8zM19.654 7.524c.551.113 1.332.259 2.334.43h-.04c.078.323.503.733 1.27 1.226.688.42 1.308.713 1.86.89-.503.21-1.108.194-1.822-.03-.897-.27-1.517-.39-1.86-.372.103.722-.068 1.011-.517.855-.449-.133-.791-.435-1.03-.914-.186-.629-.328-1.02-.435-1.171-.131-.19-.659-.361-1.586-.513.185-.44.795-.57 1.826-.4zM24.565 7.237l-.795-.142c1.215.04 1.509.283.874.742-.186.152-.356.191-.518.112-.21-.092-.263-.331-.156-.712.131-.02.331-.02.595 0zM25.83 4.293c-.395-.133-.689-.304-.869-.514.449-.151 1.03-.18 1.743-.082.269.033.611.082 1.031.141.009.064.049.181.116.342.079.19.103.347.079.46.791.17 1.363.55 1.704 1.142.317.61-.064.702-1.148.287-.292-.097-.566-.307-.83-.63-.317-.38-.571-.629-.756-.741-.186-.118-.542-.249-1.07-.405zM14.897 4.453c.18-.068.435-.093.753-.073l-.299.044a.36.36 0 0 1 .143.074c.156.131.131.37-.084.712-.713-.02-1.001-.17-.869-.458a.466.466 0 0 1 .215-.24l-.097.015c.082-.034.165-.059.238-.074zM12.203 4.698c.478.21 1.332.532 2.577.971-.556.205-1.332.4-2.339.571-1.084.205-1.875.392-2.377.543-.714.229-1.28.815-1.704 1.767-.42.918-.831 1.42-1.226 1.52-.078-1.242.079-2.175.474-2.805.502-.76 1.455-1.263 2.85-1.513-.683-.498-1.068-1.094-1.147-1.802.162 0 .387.04.674.118l.318-.83c.45.63 1.083 1.112 1.9 1.46zM13.73 2.252l-.063-.015c.713.058 1.07.307 1.07.742-.025.42-.367.546-1.03.371-.63-.17-.83-.445-.592-.826.133-.205.338-.297.615-.272zM28.721 8.38l-.396-1.128c.049.102.328.385.835.843.343.304.366.582.079.827-.24.248-.699.287-1.388.116-.737-.249-1.24-.42-1.503-.512.102-.557.458-.84 1.07-.86.58-.02 1.015.22 1.303.713zM16.045 6.24l-.991-.146c.346-.302.766-.391 1.27-.259.502.137.648.39.433.777-.13.225-.54.435-1.225.625-.478.136-.962.22-1.464.258-.108-.42.053-.752.473-1 .425-.23.923-.313 1.504-.255zM22.006 4.097c.602.112 1.045.161 1.329.142 0 .419-.264.683-.791.8a2.55 2.55 0 0 1-1.548-.146c.069-.479.405-.748 1.01-.796zM19.214 10.523h-.293c.327.034.649.122.967.259.556.248.78.581.673 1.001-1.425-.079-2.48-.361-3.168-.86.185-.264.44-.43.757-.484a1.867 1.867 0 0 1 1.064.084zM10.497 8.81l-.395-.142c1.084-.138 1.465.073 1.153.625-.318.536-.899.649-1.744.346-.107-.517.225-.791.986-.83zM21.294 1.68l-.098-.015h.259l-.161.015c.517.054 1.528.093 3.032.127.024.478-.556.811-1.744 1.001-1.478.249-2.4.517-2.772.801-.156-.514-.054-.972.318-1.372.282-.318.673-.503 1.166-.557z" fill-rule="evenodd" fill="#782e18"/><path d="M10.699 2.524l-.157.054c-.083.04-.093.107-.045.201.504.039 1.217 0 2.144-.112.156.571.01 1.132-.439 1.683-.87-.248-1.45-.433-1.743-.57-.474-.21-.528-.626-.157-1.256h.397zM16.445.953l-.4.287c.479.015.82.187 1.03.513.161.289.2.63.123 1.03-.982.094-1.588-.126-1.822-.659-.268-.532.088-.922 1.069-1.171zM23.633 2.652c.332-.162.693-.2 1.088-.128.03.65-.195 1.045-.673 1.201-.367.133-.767.084-1.187-.146-.42-.229-.556-.444-.395-.654.17-.17.561-.258 1.166-.273zM25.753 5.523a1.4 1.4 0 0 0-.597.444 3.025 3.025 0 0 0-.395-.157l.992-.287zm-.597.444c.577.263.855.591.835.986-.028.474-.502.455-1.426-.058.264-.46.42-.713.474-.772.038-.054.078-.108.117-.156zM23.672 8.853c.063.02.122.044.18.069.264.126.42.346.474.658.108.592-.341.723-1.347.4-.817-.287-1.002-.57-.553-.858.22-.147.469-.24.753-.269.156-.02.322-.02.494 0zM16.045 10.664l-.591.289c.87-.133 1.357.049 1.465.541.107.479-.303.723-1.23.743-1.079 0-1.45-.284-1.109-.855.318-.572.806-.81 1.465-.718zM7.549 8.54c-.024.024-.049.054-.078.083-.045.01-.088.025-.142.045l.22-.128zm-.078.083c.674-.21 1.025.01 1.049.67.025.707-.318 1.02-1.03.946-.659-.077-.805-.429-.434-1.059a2.98 2.98 0 0 1 .415-.557zM5.151 5.664a2.344 2.344 0 0 1 1.548.259c.499.302.45.591-.161.86-.58.244-1.03.161-1.348-.259-.313-.401-.326-.772-.039-1.114-.053.113-.053.2 0 .254zM29.316 4.097h-.395c.792-.117 1.387.073 1.782.571l-.234.825c-.185-.058-.308-.093-.357-.111a1.21 1.21 0 0 1-.24-.289c-.238.039-.556.03-.95-.024-.157-.401-.03-.727.394-.972z" fill-rule="evenodd" fill="#90a701"/></svg>